<svg width="33" height="32" viewBox="0 0 33 32" fill="none" xmlns="http://www.w3.org/2000/svg">
<path d="M16.7981 16C15.3496 16 14.1542 15.5289 13.2117 14.5867C12.2691 13.6444 11.7977 12.449 11.7977 11.0003C11.7977 9.55189 12.2688 8.35644 13.2111 7.414C14.1533 6.47133 15.3487 6 16.7974 6C18.2458 6 19.4413 6.47111 20.3837 7.41333C21.3264 8.35556 21.7977 9.551 21.7977 10.9997C21.7977 12.4481 21.3266 13.6436 20.3844 14.586C19.4422 15.5287 18.2467 16 16.7981 16ZM6.33105 24.2667V23.177C6.33105 22.3774 6.53194 21.6804 6.93372 21.086C7.33572 20.4916 7.86217 20.0393 8.51306 19.7293C9.94728 19.0727 11.3431 18.5768 12.7004 18.2417C14.0579 17.9066 15.4237 17.739 16.7977 17.739C18.1717 17.739 19.5337 17.9084 20.8837 18.2473C22.2337 18.5862 23.6265 19.0829 25.0621 19.7373C25.7298 20.0469 26.2638 20.4968 26.6641 21.087C27.0643 21.6772 27.2644 22.3738 27.2644 23.1767V24.272C27.2644 24.8484 27.0577 25.3436 26.6444 25.7573C26.2308 26.1709 25.7338 26.3777 25.1534 26.3777H8.44205C7.86161 26.3777 7.36461 26.171 6.95105 25.7577C6.53772 25.3443 6.33105 24.8473 6.33105 24.2667ZM8.44205 24.2667H25.1534V23.1807C25.1534 22.856 25.0607 22.5512 24.8754 22.2663C24.6903 21.9814 24.4625 21.7686 24.1921 21.6277C22.8476 20.9797 21.5893 20.5213 20.4171 20.2527C19.2446 19.9842 18.0392 19.85 16.8007 19.85C15.5543 19.85 14.3403 19.9842 13.1587 20.2527C11.9774 20.5213 10.7218 20.9797 9.39205 21.6277C9.11428 21.7686 8.8865 21.982 8.70872 22.268C8.53094 22.554 8.44205 22.859 8.44205 23.183V24.2667ZM16.7977 13.889C17.6199 13.889 18.3069 13.613 18.8587 13.061C19.4107 12.5092 19.6867 11.8222 19.6867 11C19.6867 10.1778 19.4107 9.49078 18.8587 8.939C18.3069 8.387 17.6199 8.111 16.7977 8.111C15.9755 8.111 15.2885 8.387 14.7367 8.939C14.1847 9.49078 13.9087 10.1778 13.9087 11C13.9087 11.8222 14.1847 12.5092 14.7367 13.061C15.2885 13.613 15.9755 13.889 16.7977 13.889Z" fill="#A1A1A1"/>
</svg>
